<?xml version="1.0" standalone="no"?>
<!DOCTYPE svg PUBLIC "-//W3C//DTD SVG 20010904//EN"
 "http://www.w3.org/TR/2001/REC-SVG-20010904/DTD/svg10.dtd">
<svg version="1.0" xmlns="http://www.w3.org/2000/svg"
 width="2088.000000pt" height="2771.000000pt" viewBox="0 0 2088.000000 2771.000000"
 preserveAspectRatio="xMidYMid meet">

<g transform="translate(0.000000,2771.000000) scale(0.100000,-0.100000)"
fill="#000000" stroke="none">
<path d="M0 13855 l0 -13855 10440 0 10440 0 0 171 c0 133 -3 170 -12 165
-146 -60 -325 -92 -454 -82 -387 32 -694 280 -781 633 -23 96 -23 313 1 408
101 391 435 644 853 645 56 0 134 -6 175 -14 74 -14 183 -51 206 -69 9 -7 12
144 12 752 l0 761 -10435 0 -10435 0 0 12165 0 12165 10438 3 10437 2 -10442
3 -10443 2 0 -13855z m8020 -12270 l0 -1285 -285 0 -285 0 0 81 0 81 -60 -55
c-214 -199 -580 -208 -858 -23 -230 152 -362 414 -362 716 0 341 166 625 444
760 119 58 217 80 348 80 170 0 292 -40 421 -138 l67 -51 0 559 0 560 285 0
285 0 0 -1285z m11115 1206 c62 -28 130 -94 162 -160 56 -114 30 -263 -62
-356 -60 -60 -135 -90 -225 -90 -129 0 -234 67 -289 184 -34 74 -36 183 -4
252 74 163 261 239 418 170z m-17890 -179 c253 -69 420 -228 497 -472 20 -66
23 -94 22 -235 0 -146 -3 -167 -27 -241 -63 -189 -197 -318 -403 -387 l-64
-22 360 -470 c198 -259 360 -473 360 -478 0 -4 -170 -6 -377 -5 l-377 3 -285
443 -286 443 -3 -446 -2 -445 -305 0 -305 0 0 1171 0 1170 558 -3 c535 -4 560
-5 637 -26z m16915 -482 l0 -240 155 0 155 0 0 -235 0 -235 -155 0 -155 0 0
-560 0 -560 -285 0 -285 0 0 560 0 560 -90 0 -90 0 0 235 0 235 90 0 90 0 0
240 0 240 285 0 285 0 0 -240z m-14995 -195 c163 -29 303 -94 419 -196 89 -79
181 -243 220 -394 14 -57 36 -243 36 -312 l0 -33 -591 0 -592 0 6 -62 c16
-171 95 -259 257 -288 121 -22 229 10 305 91 l46 49 270 0 271 0 -6 -27 c-3
-16 -27 -71 -53 -123 -83 -168 -227 -289 -413 -348 -185 -59 -430 -65 -626
-16 -322 80 -546 310 -610 625 -25 125 -16 352 20 474 92 306 314 500 643 559
105 19 291 19 398 1z m7277 -14 c344 -90 579 -307 660 -609 28 -104 30 -316 4
-417 -40 -153 -123 -293 -240 -402 -285 -267 -804 -330 -1181 -144 -175 87
-301 211 -380 376 -60 124 -76 189 -82 341 -9 203 26 330 132 489 132 198 343
328 619 381 105 20 368 12 468 -15z m5832 4 c90 -19 175 -59 259 -123 l67 -51
0 69 0 70 285 0 285 0 0 -795 0 -795 -285 0 -285 0 0 81 0 81 -60 -55 c-119
-110 -283 -164 -465 -153 -300 18 -540 179 -670 450 -59 125 -76 197 -82 357
-4 105 -2 155 12 220 66 327 302 577 609 644 82 18 245 18 330 0z m-10929 -5
c39 -6 93 -17 120 -25 115 -33 257 -148 314 -254 62 -118 63 -128 68 -764 l5
-577 -286 0 -285 0 -3 488 c-3 434 -6 492 -21 531 -43 109 -113 155 -237 155
-131 0 -215 -54 -264 -171 -20 -46 -21 -69 -24 -525 l-3 -478 -280 0 -279 0 0
795 0 795 280 0 280 0 0 -97 0 -98 38 41 c46 52 114 105 167 132 101 51 268
72 410 52z m8239 -25 c123 -32 239 -110 309 -206 23 -32 45 -58 48 -58 4 -1
19 17 34 40 106 152 301 249 505 249 268 0 443 -128 516 -375 16 -54 18 -121
21 -652 l4 -593 -285 0 -285 0 -3 488 -3 487 -24 60 c-32 80 -76 120 -146 135
-106 22 -210 -20 -259 -102 -56 -96 -59 -125 -64 -615 l-4 -453 -278 0 -279 0
-3 483 c-4 467 -5 484 -26 549 -30 88 -61 124 -125 143 -148 44 -269 -14 -312
-151 -29 -93 -34 -181 -35 -611 l0 -413 -280 0 -280 0 0 795 0 795 280 0 280
0 0 -90 c0 -49 2 -90 5 -90 3 0 29 19 58 43 100 81 215 134 339 157 69 12 218
5 292 -15z m5706 -800 l0 -795 -280 0 -280 0 0 795 0 795 280 0 280 0 0 -795z
m-10210 40 l0 -235 -445 0 -445 0 0 235 0 235 445 0 445 0 0 -235z m3050 0 l0
-235 -445 0 -445 0 0 235 0 235 445 0 445 0 0 -235z"/>
<path d="M6976 1425 c-76 -31 -148 -101 -188 -183 -27 -55 -32 -74 -31 -140 1
-111 29 -180 108 -259 53 -53 71 -64 134 -83 181 -55 355 19 438 188 24 50 28
69 28 147 0 82 -3 97 -33 157 -40 81 -111 149 -188 177 -79 30 -190 28 -268
-4z"/>
<path d="M667 2163 c-4 -3 -7 -132 -7 -285 l0 -278 108 0 c177 0 279 41 337
134 25 42 31 62 34 128 8 175 -84 272 -281 298 -86 11 -182 13 -191 3z"/>
<path d="M2869 1566 c-91 -32 -150 -93 -182 -186 l-15 -45 159 -3 c87 -1 231
-1 319 0 l160 3 -26 55 c-34 75 -105 145 -172 170 -62 23 -186 26 -243 6z"/>
<path d="M10075 1447 c-189 -63 -297 -246 -251 -426 30 -117 96 -199 201 -248
52 -24 72 -28 150 -28 76 0 99 4 145 26 70 33 133 96 173 174 29 55 32 68 32
155 0 88 -3 100 -33 158 -66 126 -168 193 -302 199 -44 2 -91 -3 -115 -10z"/>
<path d="M16155 1439 c-98 -28 -198 -125 -232 -224 -25 -70 -22 -175 6 -247
30 -76 106 -159 179 -195 50 -24 69 -27 152 -28 83 0 102 3 152 27 71 33 138
100 175 176 24 50 28 69 28 147 0 82 -3 97 -33 157 -40 81 -111 149 -188 177
-58 22 -181 27 -239 10z"/>
<path d="M2010 15535 l0 -10165 8445 0 8445 0 0 10165 0 10165 -8445 0 -8445
0 0 -10165z m5700 4015 l0 -4750 -2085 0 -2085 0 0 4750 0 4750 2085 0 2085 0
0 -4750z m3960 4740 c1134 -63 2055 -345 2850 -873 918 -610 1566 -1559 1850
-2712 124 -502 166 -903 157 -1495 -7 -451 -34 -726 -108 -1095 -334 -1674
-1428 -2784 -3202 -3246 -117 -31 -166 -48 -162 -56 3 -10 -415 -13 -2070 -13
l-2075 0 0 1165 0 1165 518 0 c516 0 678 7 907 36 840 110 1428 460 1713 1022
93 182 143 342 179 568 25 156 24 536 0 694 -45 289 -133 525 -273 735 -272
408 -749 692 -1364 815 -315 63 -504 76 -1177 86 l-503 7 0 1603 0 1604 1288
0 c749 0 1364 -4 1472 -10z m-3960 -14105 l0 -3275 -2085 0 -2085 0 0 3275 0
3275 2085 0 2085 0 0 -3275z m7855 13 c1375 -1793 2504 -3267 2508 -3274 7
-12 -379 -14 -2590 -14 l-2598 1 -1987 3083 -1988 3083 0 192 0 191 2078 -1
2077 0 2500 -3261z"/>
<path d="M20463 1455 c-102 -31 -185 -104 -232 -204 -23 -49 -26 -69 -26 -156
0 -91 3 -106 31 -165 56 -118 150 -188 282 -209 104 -17 200 6 310 72 l52 31
0 276 0 276 -67 33 c-38 19 -90 40 -118 47 -63 17 -177 17 -232 -1z"/>
</g>
</svg>
